<svg fill="#000" height="48" viewBox="0 0 199 48" width="199" xmlns="http://www.w3.org/2000/svg"><path d="m53.781 24.4404c0-7.7602 4.1325-11.6088 12.2398-11.6088 3.3123 0 5.2681.5993 6.9407 1.3564l-1.4196 3.8802c-2.1142-.5678-2.9969-.7887-5.458-.8208-4.0379-.0625-6.8449 2.2082-6.8449 6.877 0 4.6694 2.9653 7.1615 7.4764 7.1615 2.1761 0 3.47-.1893 5.1723-.6309l1.1363 4.0378c-2.1451.7887-4.0058 1.0726-6.8764 1.0726-8.1704 0-12.3666-4.0063-12.3666-11.325zm34.2611 2.3975c0-2.776-.6934-4.8896-3.5974-4.8896-2.8385 0-3.6266 2.1136-3.6266 4.9218 0 2.9647.8833 4.7628 3.6903 4.7628 2.8403 0 3.5332-1.8612 3.5332-4.795zm-12.5248.1578c0-5.7104 3.5652-9.212 9.0227-9.212 6.1199 0 8.8655 3.4391 8.8655 9.0548 0 5.867-3.8503 8.9906-9.15 8.9906-5.6777 0-8.7382-3.4391-8.7382-8.834zm19.5934-8.7698h5.6463l2.903 9.3376.883 3.4385.978-3.4385 3.217-9.3376h5.522l-6.689 17.224h-6.246zm31.2303 12.8392v-2.7124l-2.585.0637c-1.547.031-2.681.5357-2.681 1.7975 0 1.0095.977 1.4511 1.923 1.4511 1.01 0 2.209-.2845 3.344-.5993zm-10.378-.5363c0-4.3533 3.976-5.2366 7.383-5.2366h2.996v-1.0732c0-1.5136-.978-1.9552-3.122-1.9552-1.705 0-3.534.3785-5.143.7565l-1.04-3.8171c1.956-.7565 4.227-1.3874 6.971-1.3874 5.332 0 7.477 1.5142 7.477 5.3944v7.6656c0 .5678.568.694 1.545.7256l-.189 3.9747c-.41.0316-.821.0316-1.231.0316-2.081 0-4.289-.347-4.762-1.8297-1.262.9785-3.06 1.9559-4.954 1.9559-3.785 0-5.931-1.7666-5.931-5.2051zm20.98-18.865h5.269v23.7867h-5.269zm19.876 13.4076c.063-2.0821-.852-3.5332-2.556-3.5332-1.798 0-2.964 1.2619-3.06 3.5332zm-11.011 2.0183c0-7.0341 3.692-9.2739 8.897-9.2739 5.426 0 7.508 3.5332 7.508 8.7382v1.8928h-11.167c-.031 2.7129 2.113 3.2176 4.857 3.2176 1.168 0 3.124-.3785 4.922-.694l.789 4.0058c-1.924.5684-4.385.8529-6.467.8529-5.678 0-9.339-1.8618-9.339-8.7394zm20.003-8.8638h5.269v1.735c1.041-.7886 3.312-2.1772 5.616-2.1772 5.394 0 5.772 2.9653 5.772 6.8776v10.7892h-5.237v-10.3476c0-2.3659-.535-2.776-2.303-2.776-1.577 0-2.996.5047-3.848.9148v12.2082h-5.269zm21.831 11.8613v-7.9811h-2.522v-3.8802h2.522v-3.5337h5.237v3.5337h5.332v3.8802h-5.332v7.9495c0 1.2618.474 1.3565 1.894 1.3565 1.166 0 3.722-.347 3.722-.347l.505 4.1325c-1.231.347-2.902.5994-4.164.5994-3.313 0-7.194.1577-7.194-5.7098zm-163.8962-19.0111v-11.0761c-13.1207 0-23.7458 10.6257-23.7458 23.7459 0 13.1207 10.6257 23.747 23.7458 23.747v-11.0761c-7.0031 0-12.6697-5.6672-12.6697-12.6709 0-7.0026 5.6666-12.6698 12.6697-12.6698z" fill="#000"/><path d="m36.4619 11.0761c-.7273 0-1.4474-.1432-2.1193-.4215s-1.2824-.68628-1.7967-1.20054c-.5142-.51425-.9222-1.12478-1.2005-1.79671-.2783-.67187-.4216-1.39205-.4216-2.1193 0-.72727.1433-1.44741.4216-2.11932s.6863-1.28242 1.2005-1.79667c.5143-.51426 1.1248-.922188 1.7967-1.200501s1.392-.42155901 2.1193-.421559c1.4688.00000002 2.8774.583472 3.916 1.62206 1.0385 1.03859 1.622 2.44721 1.622 3.91599 0 1.46875-.5835 2.87739-1.622 3.91601-1.0386 1.03854-2.4472 1.62204-3.916 1.62204z" fill="#000"/><path d="m36.3701 47.4921c-1.4688 0-2.8774-.5835-3.916-1.622-1.0386-1.0386-1.6221-2.4472-1.6221-3.916s.5835-2.8774 1.6221-3.916 2.4472-1.6221 3.916-1.6221 2.8774.5835 3.916 1.6221 1.622 2.4472 1.622 3.916-.5834 2.8774-1.622 3.916c-1.0386 1.0385-2.4472 1.622-3.916 1.622z" fill="#000"/><path d="m36.4155 23.7455c0 7.0038-5.6666 12.6709-12.6704 12.6709v-25.3412c7.0032 0 12.6704 5.6666 12.6704 12.6697" fill="#000"/></svg>
