<svg fill="#000" height="46" viewBox="0 0 152 46" width="152" xmlns="http://www.w3.org/2000/svg"><g fill="#000"><path d="m23.9824 22.6305 15.5378 15.7067c3.9816-4.2523 6.1608-9.8818 6.08-15.7067-.0289-5.8046-2.1931-11.3955-6.08-15.70667z"/><path d="m22.8006 23.8125-15.36896 15.3689 15.36896 6.4178 15.3689-6.4178z"/><path d="m22.2934 22.1245 15.8756-16.04449-14.6934-6.08001-14.52443 35.6356z"/><path d="m.00000087 22.6305c-.00159002 5.76 2.16960913 11.3086 6.08000913 15.5378l15.36889-37.1556z"/><path d="m145.075 18.2407c-1.116-.0419-2.224.2184-3.204.7535-.981.5351-1.8 1.325-2.369 2.2865v-2.7022h-3.04v17.9022h3.04v-11.6533c.128-1.1355.693-2.1764 1.576-2.9017s2.014-1.0779 3.153-.9828c3.04 0 4.729 1.8578 4.729 5.2356v10.3022h3.04v-10.8089c0-4.56-2.703-7.4311-6.925-7.4311z"/><path d="m128.693 12.667h-3.04v3.5467c.008.3126-.048.6234-.164.9138-.116.2903-.29.554-.511.7751s-.485.395-.775.5111-.601.1721-.914.1644h-3.378l-5.573 13.68-5.742-13.68h-3.04l7.262 17.5645-1.858 4.56h-4.053v2.7022h3.04c.867 0 1.714-.2566 2.436-.7375.721-.4808 1.284-1.1645 1.617-1.9647l7.938-19.2534h3.715v10.6401c-.054.5837.016 1.1723.204 1.7275.189.5551.492 1.0643.89 1.4945s.883.7717 1.422 1.0022 1.121.3449 1.707.3358h4.222v-2.8712h-5.236v-12.4978h5.236v-2.7022h-5.236v-5.9111z"/><path d="m103.529 24.826c0-4.0534-2.871-6.4178-7.4312-6.4178-1.9082-.0612-3.7691.6009-5.2098 1.8536-1.4406 1.2528-2.3547 3.0037-2.5591 4.902h3.04c.1359-1.1602.692-2.2304 1.5634-3.0084.8713-.778 1.9974-1.2098 3.1655-1.2139.5781-.066 1.1637-.0035 1.7149.1829.5512.1863 1.0544.4921 1.4739.8954.4194.4033.7444.8941.9524 1.4376s.293 1.1261.25 1.7064v1.1822h-4.2223c-5.9111 0-8.4444 1.8578-8.4444 5.0667 0 3.3778 2.5333 5.4044 6.7555 5.4044 3.2089 0 5.2356-1.1822 6.0802-3.2089.169 1.6889 1.182 2.8711 3.547 2.8711h2.026v-2.7022h-2.702zm-3.04 6.4178c0 1.8578-2.1956 3.2089-5.4045 3.2089-2.5333 0-4.0533-1.0134-4.0533-2.7023v-.6755c0-1.6889 1.6889-2.7022 5.2355-2.7022h4.2223z"/><path d="m83.094 11.3154h-3.04v20.6045c-.0542.5838.0152 1.1724.2037 1.7275.1884.5552.4917 1.0644.89 1.4946s.8827.7716 1.4217 1.0021c.5391.2306 1.1206.345 1.7068.3358h1.52v-2.7022h-2.7022z"/><path d="m62.3193 11.3154h-3.04v25.1645h3.04z"/><path d="m78.0277 11.3154h-3.7156l-9.4578 9.4578c-.4326.447-.6882 1.0359-.7193 1.6572-.031.6213.1646 1.2327.5504 1.7206l9.7956 12.3289h3.8845l-11.1467-14.1867z"/></g></svg>
