<svg fill="#000" height="37" viewBox="0 0 194 37" width="194" xmlns="http://www.w3.org/2000/svg"><path clip-rule="evenodd" d="m.00124767 15.4213c.17280233-7.19909 5.98569233-12.97892 13.12235233-12.97892 7.1479 0 12.9496 5.78295 13.1224 12.97892.0561 2.3499-1.7767 4.3013-4.0949 4.3587-2.3182.0568-4.2421-1.8016-4.2988-4.1516-.0624-2.5921-2.1535-4.6744-4.7287-4.6744-2.554 0-4.6407 2.0593-4.72679 4.6276.01372 3.4435 1.30194 6.831 2.76549 9.5228.591 1.0874 1.2496 2.1367 1.9719 3.1416.2493.3462.5085.6851.7773 1.0163l.0287.0343-.0012-.0019-.0019-.0025.0043.005c1.5178 1.7698 1.3369 4.4523-.4061 5.9963-.413.3675-.8952.6489-1.4184.8278-.5231.1789-1.0767.2517-1.6283.2141-.55157-.0376-1.09014-.1848-1.58417-.433-.49404-.2482-.93361-.5924-1.29303-1.0125l3.161-2.801c-3.161 2.801-3.16162 2.7997-3.16287 2.7985l-.00499-.0056-.00998-.0119-.02683-.0312-.08109-.0973c-.0891-.1076-.17707-.2162-.26389-.3256-.29753-.375-.58623-.7569-.86588-1.1454-.93348-1.2977-1.78441-2.6529-2.54774-4.0574-1.81598-3.3406-3.80913-8.2128-3.80913-13.6876v-.0524zm13.93455233 13.8697.0007.0012v-.0012z" fill="#000" fill-rule="evenodd"/><path clip-rule="evenodd" d="m26.4408 15.4244v.5633c.0003.5517-.1081 1.098-.3189 1.6078s-.5199.9731-.9098 1.3634-.8528.7-1.3623.9115c-.5096.2114-1.0558.3204-1.6074.3207-.5517-.0003-1.0979-.1093-1.6075-.3207-.5095-.2115-.9724-.5212-1.3623-.9115s-.699-.8536-.9098-1.3634-.3192-1.0561-.3189-1.6078v-.6737l.0019-.0512c.1728-7.11046 5.9857-12.82042 13.1224-12.82042 7.1366 0 12.9495 5.70996 13.1223 12.82042l.0013.0512v.0511c0 4.4623-1.3912 8.4642-2.6732 11.2328-.5348 1.1574-1.1359 2.283-1.8003 3.3712-.2582.4214-.5282.8353-.8098 1.2414-.0268.038-.0538.0759-.0811.1135l-.0081.0106-.005.0069c0 .0013-.0012.0019-3.2483-2.3793l3.2471 2.3812c-.3253.4452-.7352.822-1.2063 1.1087-.4711.2866-.994.4776-1.539.562-.5449.0843-1.1011.0604-1.6368-.0704s-1.0404-.366-1.4851-.692c-.4458-.3272-.8228-.739-1.1094-1.2119-.2866-.473-.4771-.9978-.5607-1.5445-.0836-.5466-.0587-1.1044.0734-1.6414.1322-.537.3688-1.0426.6965-1.4881.1788-.2599.3507-.5245.5153-.7935.4942-.81.9414-1.6477 1.3394-2.5091.9962-2.1522 1.8833-4.8759 1.8946-7.6419-.0861-2.5372-2.1728-4.5709-4.7268-4.5709-2.5553 0-4.6426 2.0356-4.7274 4.574z" fill="#000" fill-rule="evenodd"/><path d="m35.5436 33.6116c1.1602 0 2.2729-.4609 3.0933-1.2813s1.2813-1.9331 1.2813-3.0934c0-1.1602-.4609-2.2729-1.2813-3.0933s-1.9331-1.2813-3.0933-1.2813-2.2729.4609-3.0934 1.2813c-.8204.8204-1.2813 1.9331-1.2813 3.0933 0 1.1603.4609 2.273 1.2813 3.0934.8205.8204 1.9332 1.2813 3.0934 1.2813z" fill="#000"/><path d="m79.3783 9.27003c2.3744 0 4.2883.75987 5.7181 2.28007 1.4417 1.5197 2.1628 3.5347 2.1628 6.0562v12.3544h-6.2277v-11.8353c0-1.0256-.2608-1.8216-.7704-2.413-.5097-.5914-1.2558-.8809-2.2252-.8809-1.0194 0-1.8148.3375-2.3868 1.0013-.5721.6756-.8453 1.5926-.8453 2.7748v11.3531h-6.2278v-11.8353c0-1.0256-.2607-1.8216-.7704-2.413s-1.2558-.8809-2.2252-.8809c-1.0194 0-1.8148.3375-2.3868 1.0013-.5721.6756-.8453 1.5926-.8453 2.7748v11.3531h-6.2028v-20.13608h6.2277v1.84658c1.1311-1.6052 2.9832-2.41364 5.5565-2.41364 2.4118 0 4.214.88084 5.4324 2.65444 1.2676-1.7617 3.2689-2.64197 6.0162-2.64197zm29.8957 18.16917c-2.126 2.0506-4.724 3.0761-7.794 3.0761-3.0703 0-5.6686-1.0255-7.794-3.0761-2.126-2.0512-3.1947-4.5727-3.1947-7.5528 0-2.98 1.0687-5.4897 3.1947-7.5521 2.1254-2.0512 4.7237-3.07674 7.794-3.07674 3.07 0 5.668 1.02554 7.794 3.07674 2.125 2.0506 3.194 4.5727 3.194 7.5521 0 2.992-1.056 5.5016-3.194 7.5528zm-11.2-4.126c.9071.8802 2.051 1.3269 3.406 1.3269s2.486-.4467 3.406-1.3269c.92-.8809 1.367-2.0275 1.367-3.4268 0-1.3992-.46-2.5333-1.367-3.4261-.907-.8927-2.051-1.3268-3.406-1.3268s-2.4864.446-3.406 1.3268c-.9201.8809-1.3674 2.0269-1.3674 3.4261 0 1.3999.4598 2.5453 1.3674 3.4268zm24.14-9.9053c.385-1.2913 1.168-2.2801 2.349-2.9557 1.181-.68809 2.474-1.02558 3.879-1.02558v6.84038c-1.517-.2415-2.934.0124-4.252.7486-1.317.7355-1.964 2.0143-1.964 3.8478v9.0967h-6.227v-20.13548h6.227v3.58328zm23.568-3.58328h6.228v20.12368h-6.228v-1.894c-1.466 1.6407-3.53 2.461-6.177 2.461-2.735 0-5.072-1.0255-7.012-3.0761-1.939-2.0512-2.908-4.5727-2.908-7.5528 0-2.98.969-5.4897 2.908-7.5521 1.94-2.0512 4.277-3.07674 7.012-3.07674 2.66 0 4.711.82034 6.177 2.46104zm-8.502 13.65698c.907.8809 2.101 1.3275 3.567 1.3275 1.467 0 2.66-.4466 3.568-1.3275s1.367-2.0749 1.367-3.5833c0-1.5078-.459-2.7024-1.367-3.5827-.908-.8808-2.101-1.3275-3.568-1.3275-1.466 0-2.66.4467-3.567 1.3275-.908.8809-1.367 2.0749-1.367 3.5833-.013 1.496.447 2.69 1.367 3.5827zm19.28 6.4785v-29.388811h6.227v29.388811zm16.532-22.9708c-.733.71179-1.616 1.06176-2.635 1.06176s-1.902-.34934-2.635-1.06176c-.734-.71117-1.094-1.56832-1.094-2.55772 0-.98878.36-1.84531 1.094-2.55772.733-.71118 1.616-1.061147 2.635-1.061147s1.902.361827 2.635 1.061767c.734.71117 1.094 1.56832 1.094 2.55772 0 1.00125-.36 1.8453-1.094 2.55772zm-5.742 22.9708v-20.13548h6.227v20.12368h-6.227v.0124zm16.458-14.2484c0 .3993.348.7362 1.056.9901.708.2532 1.554.5065 2.548.7598s1.989.5789 2.984.9894c.994.398 1.84 1.0618 2.548 1.99.708.9295 1.056 2.088 1.056 3.4873 0 2.1715-.832 3.8122-2.486 4.9345-1.653 1.1098-3.704 1.665-6.141 1.665-4.375 0-7.346-1.5926-8.912-4.7898l5.395-2.98c.547 1.5808 1.728 2.3768 3.53 2.3768 1.491 0 2.238-.4105 2.238-1.2427 0-.398-.349-.7361-1.057-1.0013-.835-.3072-1.686-.569-2.549-.7841-1.016-.2628-2.013-.5974-2.983-1.0013-.994-.4105-1.839-1.0617-2.548-1.9545-.708-.8927-1.056-1.9788-1.056-3.2576 0-2.0992.783-3.7156 2.349-4.874 1.566-1.15849 3.493-1.72556 5.78-1.72556 1.715 0 3.282.3743 4.686 1.11046 1.405.7361 2.549 1.8091 3.406 3.1971l-5.307 2.7748c-.659-1.1828-1.592-1.7735-2.785-1.7735-1.168-.0244-1.752.3493-1.752 1.1098z" fill="#000"/></svg>
