<svg fill="none" height="49" viewBox="0 0 210 49" width="210" xmlns="http://www.w3.org/2000/svg"><g fill="#000"><path d="m69.5402 35.8111c-2.2023 0-4.2267-.4935-6.0731-1.4805-1.8241-.9871-3.2812-2.3604-4.3713-4.1199-1.0678-1.781-1.6017-3.7766-1.6017-5.9867 0-2.2102.5339-4.1951 1.6017-5.9546 1.0901-1.7595 2.5472-3.1328 4.3713-4.1199 1.8464-.987 3.8708-1.4806 6.0731-1.4806 2.2024 0 4.2156.4936 6.0398 1.4806 1.8463.9871 3.2923 2.3604 4.3379 4.1199 1.0678 1.7595 1.6017 3.7444 1.6017 5.9546 0 2.2101-.5339 4.2057-1.6017 5.9867-1.0678 1.7595-2.5138 3.1328-4.3379 4.1199-1.8242.987-3.8374 1.4805-6.0398 1.4805zm0-5.0211c1.8687 0 3.3591-.6008 4.4714-1.8025 1.1346-1.2016 1.7018-2.7894 1.7018-4.7635 0-1.9956-.5672-3.5835-1.7018-4.7637-1.1123-1.2016-2.6027-1.8024-4.4714-1.8024-1.8909 0-3.4036.5901-4.5381 1.7702-1.1123 1.1802-1.6685 2.7788-1.6685 4.7959 0 1.9955.5562 3.5941 1.6685 4.7958 1.1345 1.1801 2.6472 1.7702 4.5381 1.7702z"/><path d="m90.4004 20.1684c.5561-.8368 1.3236-1.5128 2.3024-2.0277.9788-.5151 2.1244-.7725 3.437-.7725 1.5349 0 2.9253.3755 4.1712 1.1265 1.246.751 2.224 1.8239 2.936 3.2186.734 1.3948 1.101 3.0149 1.101 4.8602 0 1.8454-.367 3.4762-1.101 4.8924-.712 1.3948-1.69 2.4783-2.936 3.2509-1.2459.751-2.6363 1.1265-4.1712 1.1265-1.2903 0-2.4359-.2575-3.437-.7725-.9788-.515-1.7463-1.1801-2.3024-1.9956v7.8536h-5.7061v-23.3032h5.7061zm8.1419 6.4051c0-1.3732-.4004-2.4461-1.2012-3.2186-.7786-.794-1.7464-1.1909-2.9031-1.1909-1.1345 0-2.1023.3969-2.9031 1.1909-.7786.7939-1.1679 1.8775-1.1679 3.2508s.3893 2.457 1.1679 3.2509c.8008.7939 1.7686 1.1909 2.9031 1.1909s2.1022-.397 2.9031-1.1909c.8008-.8154 1.2012-1.9098 1.2012-3.2831z"/><path d="m124.893 26.316c0 .515-.033 1.0514-.1 1.6094h-12.913c.089 1.1158.456 1.9741 1.101 2.5749.667.5794 1.479.869 2.436.869 1.424 0 2.413-.5793 2.97-1.738h6.073c-.312 1.1801-.879 2.2423-1.702 3.1865-.801.9441-1.813 1.6844-3.037 2.2208-1.223.5364-2.591.8047-4.104.8047-1.824 0-3.448-.3755-4.872-1.1265-1.423-.7511-2.536-1.824-3.337-3.2187-.8-1.3948-1.201-3.0255-1.201-4.8924 0-1.8668.389-3.4976 1.168-4.8924.801-1.3947 1.913-2.4676 3.337-3.2186 1.423-.751 3.059-1.1265 4.905-1.1265 1.802 0 3.404.3647 4.805 1.0943 1.402.7296 2.492 1.7703 3.27 3.1221.801 1.3519 1.201 2.929 1.201 4.7314zm-5.839-1.4484c0-.9441-.334-1.6951-1.001-2.253-.668-.5579-1.502-.8369-2.503-.8369-.956 0-1.768.2683-2.436.8047-.645.5364-1.045 1.2982-1.201 2.2852z"/><path d="m139.25 17.4326c2.18 0 3.915.6867 5.205 2.06 1.312 1.3518 1.969 3.2186 1.969 5.6005v10.4928h-5.673v-9.7526c0-1.2016-.323-2.135-.968-2.8002s-1.512-.9978-2.602-.9978c-1.091 0-1.958.3326-2.603.9978s-.968 1.5986-.968 2.8002v9.7526h-5.706v-17.9602h5.706v2.3818c.579-.7939 1.357-1.4162 2.336-1.8668.979-.472 2.08-.7081 3.304-.7081z"/><path d="m158.865 35.8111c-1.713 0-3.248-.2682-4.605-.8046-1.357-.5365-2.447-1.3304-3.27-2.3819-.801-1.0514-1.224-2.3174-1.268-3.798h6.073c.089.8369.389 1.4806.901 1.9312.512.4292 1.179.6438 2.002.6438.845 0 1.512-.1824 2.002-.5472.489-.3862.734-.912.734-1.5771 0-.558-.2-1.0193-.6-1.3841-.378-.3648-.857-.6652-1.435-.9012-.557-.2361-1.357-.5043-2.403-.8047-1.513-.4506-2.747-.9012-3.704-1.3518-.956-.4506-1.779-1.1158-2.469-1.9956-.69-.8797-1.035-2.0277-1.035-3.4439 0-2.1029.79-3.7444 2.37-4.9246 1.579-1.2016 3.637-1.8025 6.173-1.8025 2.581 0 4.66.6009 6.24 1.8025 1.579 1.1802 2.425 2.8324 2.536 4.9567h-6.173c-.045-.7295-.323-1.2982-.835-1.7059-.511-.4291-1.168-.6437-1.969-.6437-.689 0-1.245.1824-1.668.5472-.422.3433-.634.8476-.634 1.5128 0 .7295.356 1.2982 1.068 1.7058.712.4077 1.824.8476 3.337 1.3197 1.513.4935 2.736.9656 3.67 1.4162.957.4506 1.78 1.1051 2.47 1.9634s1.034 1.9634 1.034 3.3152c0 1.2875-.344 2.4569-1.034 3.5083-.667 1.0515-1.646 1.8883-2.937 2.5106-1.29.6223-2.814.9334-4.571.9334z"/><path d="m188.471 26.316c0 .515-.034 1.0514-.101 1.6094h-12.913c.089 1.1158.456 1.9741 1.101 2.5749.667.5794 1.48.869 2.436.869 1.424 0 2.414-.5793 2.97-1.738h6.073c-.312 1.1801-.879 2.2423-1.702 3.1865-.801.9441-1.813 1.6844-3.037 2.2208-1.223.5364-2.591.8047-4.104.8047-1.824 0-3.448-.3755-4.872-1.1265-1.423-.7511-2.536-1.824-3.337-3.2187-.8-1.3948-1.201-3.0255-1.201-4.8924 0-1.8668.389-3.4976 1.168-4.8924.801-1.3947 1.913-2.4676 3.337-3.2186 1.423-.751 3.059-1.1265 4.905-1.1265 1.802 0 3.404.3647 4.805 1.0943 1.402.7296 2.492 1.7703 3.27 3.1221.801 1.3519 1.202 2.929 1.202 4.7314zm-5.84-1.4484c0-.9441-.334-1.6951-1.001-2.253-.668-.5579-1.502-.8369-2.503-.8369-.956 0-1.768.2683-2.436.8047-.645.5364-1.045 1.2982-1.201 2.2852z"/><path d="m190.346 26.5735c0-1.8453.356-3.4654 1.068-4.8602.734-1.3947 1.724-2.4676 2.969-3.2186 1.246-.751 2.636-1.1265 4.172-1.1265 1.312 0 2.458.2574 3.437.7725 1 .5149 1.768 1.1909 2.302 2.0277v-2.5428h5.706v17.9602h-5.706v-2.5427c-.556.8368-1.335 1.5127-2.336 2.0277-.979.515-2.124.7725-3.437.7725-1.513 0-2.892-.3755-4.138-1.1265-1.245-.7726-2.235-1.8561-2.969-3.2509-.712-1.4162-1.068-3.047-1.068-4.8924zm13.948.0322c0-1.3733-.401-2.4569-1.201-3.2508-.779-.794-1.736-1.1909-2.87-1.1909-1.135 0-2.102.3969-2.903 1.1909-.779.7725-1.168 1.8454-1.168 3.2186 0 1.3733.389 2.4677 1.168 3.2831.801.7939 1.768 1.1909 2.903 1.1909 1.134 0 2.091-.397 2.87-1.1909.8-.7939 1.201-1.8776 1.201-3.2509z"/></g><path d="m48.7239 24.3619c0 13.454-10.908 24.362-24.362 24.362-13.4539 0-24.3619-10.908-24.3619-24.362 0-13.4539 10.908-24.3619 24.3619-24.3619 13.4568 0 24.362 10.908 24.362 24.3619z" fill="#000"/><path d="m12.0192 25.1808.1051-.1652 6.3375-9.9143c.0926-.1451.3104-.1301.3804.0276 1.0588 2.3728 1.9724 5.3238 1.5444 7.161-.1827.7559-.6833 1.7795-1.2465 2.7257-.0726.1377-.1527.2728-.2378.403-.04.06-.1076.0951-.1802.0951h-6.5177c-.1752 0-.2778-.1902-.1852-.3329z" fill="#fff"/><path d="m40.268 27.0231v1.5693c0 .0901-.0551.1702-.1352.2053-.4905.2102-2.1701.9811-2.8684 1.9523-1.7821 2.4804-3.1437 6.0271-6.1873 6.0271h-12.6976c-4.5002 0-8.1471-3.6593-8.1471-8.1747v-.1451c0-.1202.0976-.2178.2178-.2178h7.0784c.1401 0 .2427.1302.2302.2678-.05.4606.0351.9311.2528 1.3591.4205.8536 1.2916 1.3867 2.2327 1.3867h3.5041v-2.7357h-3.4641c-.1777 0-.2828-.2053-.1802-.3505.0375-.0576.0801-.1176.1251-.1852.328-.4655.796-1.1889 1.2616-2.0124.3178-.5556.6257-1.1488.8735-1.7445.0501-.1076.0901-.2178.1301-.3254.0676-.1903.1377-.368.1878-.5457.05-.1502.09-.3078.1301-.4555.1177-.5056.1677-1.0413.1677-1.5969 0-.2177-.01-.4455-.03-.6633-.01-.2377-.0401-.4756-.0701-.7133-.02-.2103-.0576-.418-.0976-.6358-.0501-.3179-.1202-.6332-.2003-.9511l-.0275-.1201c-.0601-.2178-.1101-.4255-.1802-.6433-.1978-.6833-.4255-1.3491-.6658-1.9723-.0876-.2478-.1877-.4856-.2879-.7234-.1476-.3579-.2978-.6833-.4355-.9912-.07-.1402-.1301-.2678-.1902-.398-.0675-.1476-.1376-.2953-.2077-.4354-.0501-.1077-.1077-.2078-.1477-.3079l-.428-.791c-.0601-.1076.0401-.2353.1577-.2027l2.6782.7258h.0075c.005 0 .0075.0026.01.0026l.3529.0976.388.1101.1426.04v-1.5918c0-.7685.6158-1.39168 1.3767-1.39168.3804 0 .7258.15518.9736.40798s.403.5982.403.9837v2.3628l.2853.08c.0226.0076.0451.0176.0651.0326.0701.0526.1702.1301.2978.2253.1002.08.2078.1777.3379.2778.2578.2077.5657.4756.9036.7834.0901.0776.1777.1577.2578.2378.4356.4055.9236.881 1.3892 1.4067.1301.1477.2578.2978.3879.4555.1302.1602.2679.3179.388.4756.1577.2102.3279.428.4756.6558.07.1076.1501.2177.2177.3253.1902.2878.3579.5857.5181.8836.0676.1376.1377.2878.1978.4355.1777.398.3178.8034.4079 1.2089.0276.0876.0476.1827.0576.2679v.02c.03.1201.0401.2478.0501.3779.04.4155.02.831-.0701 1.249-.0376.1777-.0876.3454-.1477.5231-.0601.1702-.1201.3479-.1977.5156-.1502.3479-.3279.6958-.5382 1.0212-.0675.1202-.1476.2478-.2278.368-.0876.1276-.1776.2478-.2577.3654-.1102.1502-.2278.3079-.3479.448-.1077.1477-.2178.2954-.3379.4255-.1677.1978-.3279.3855-.4957.5657-.1.1176-.2077.2378-.3178.3454-.1076.1201-.2178.2278-.3179.3279-.1677.1677-.3078.2978-.4255.4055l-.2753.2528c-.0401.035-.0926.0551-.1477.0551h-2.1325v2.7357h2.6831c.6008 0 1.1715-.2128 1.632-.6032.1577-.1377.846-.7334 1.6594-1.632.0276-.03.0627-.0525.1027-.0625l7.4112-2.1425c.1377-.0401.2779.065.2779.2102z" fill="#fff"/></svg>
