<svg fill="#000" height="44" viewBox="0 0 213 44" width="213" xmlns="http://www.w3.org/2000/svg"><path d="m37.6648 13.442c-.4762-.2744-1.016-.4188-1.5655-.4188-.5496 0-1.0894.1444-1.5655.4188l-7.183 4.279-4.8807 2.7907-7.183 4.2791c-.4761.2744-1.016.4188-1.5655.4188s-1.0894-.1444-1.5655-.4188l-5.70947-3.3488c-.46852-.2798-.85809-.6742-1.13198-1.1462s-.42309-1.0059-.43353-1.5515v-6.6046c-.00911-.5496.13186-1.0912.40772-1.5665.27585-.4754.67616-.86646 1.15779-1.13119l5.61737-3.25582c.4762-.27437 1.0161-.41879 1.5656-.41879s1.0894.14442 1.5655.41879l5.6174 3.25582c.4685.27977.8581.67419 1.1319 1.14619.2739.472.4231 1.0059.4336 1.5515v4.279l4.8806-2.8837v-4.2791c.0092-.54952-.1318-1.09111-.4076-1.56646-.2759-.47536-.6762-.86646-1.1578-1.1312l-10.4061-6.139445c-.4761-.274372-1.016-.418795-1.5655-.418795s-1.0894.144423-1.5655.418795l-10.5902 6.139525c-.48162.26473-.881905.65582-1.157758 1.13116-.275853.47533-.41682171 1.01691-.40772748 1.56642v12.3721c-.00910264.5495.13186448 1.0911.40772348 1.5664.275859.4754.676162.8665 1.157792 1.1312l10.59027 6.1395c.4761.2744 1.0159.4189 1.5654.4189.5496 0 1.0894-.1445 1.5655-.4189l7.183-4.1861 4.8807-2.8836 7.183-4.186c.4761-.2744 1.016-.4188 1.5655-.4188s1.0894.1444 1.5655.4188l5.6174 3.2558c.4685.2798.858.6742 1.1319 1.1462.2739.4719.4231 1.0059.4335 1.5514v6.6047c.0092.5495-.1318 1.0911-.4076 1.5664-.2759.4754-.6762.8665-1.1578 1.1312l-5.6174 3.3489c-.4761.2744-1.016.4188-1.5655.4188s-1.0894-.1444-1.5655-.4188l-5.6174-3.2558c-.4686-.2798-.8582-.6742-1.1321-1.1462s-.4231-1.006-.4335-1.5516v-4.279l-4.8807 2.8837v4.2791c-.0091.5495.1318 1.0911.4077 1.5665.2758.4753.6761.8664 1.1577 1.1311l10.5903 6.1397c.4761.2743 1.016.4187 1.5655.4187s1.0894-.1444 1.5655-.4187l10.5902-6.1397c.4685-.2797.8581-.6741 1.132-1.1461s.4231-1.0059.4336-1.5515v-12.3721c.0091-.5495-.1319-1.0911-.4078-1.5664-.2758-.4754-.6761-.8664-1.1578-1.1312z" fill="#000"/><g fill="#000"><path d="m69.3586 40.0389v-10.2713c.7041.7494 1.5651 1.334 2.5214 1.7119s1.9843.5399 3.0105.4744c6.0311 0 10.1072-4.2487 10.1072-10.725 0-6.4762-3.7433-10.725-9.6081-10.725-1.138-.0644-2.2753.1369-3.3221.5879-1.0467.451-1.9742 1.1395-2.7089 2.0109v-2.2688h-5.7815v29.205zm4.8249-13.035c-3.1196 0-5.1577-2.31-5.1577-5.775 0-3.5062 2.0381-5.8162 5.1577-5.8162 3.0362 0 5.1159 2.31 5.1159 5.8162 0 3.465-2.0797 5.775-5.1159 5.775z"/><path d="m98.1254 31.9532c2.1066-.0656 4.1476-.7503 5.8686-1.9687 1.72-1.2184 3.043-2.9166 3.804-4.8824s.926-4.1123.475-6.1714c-.451-2.0592-1.499-3.9397-3.013-5.4069-1.513-1.4673-3.426-2.4562-5.4979-2.8433-2.0721-.3871-4.2124-.1553-6.1536.6666-1.9413.8218-3.5974 2.1972-4.7617 3.9545-1.1644 1.7573-1.7853 3.8186-1.7853 5.9266-.0278 1.445.242 2.8803.7926 4.2166.5507 1.3363 1.3703 2.545 2.4081 3.5509 1.0377 1.006 2.2713 1.7876 3.6241 2.2964 1.3527.5088 2.7957.7338 4.2391.6611zm0-4.95c-3.1196 0-5.2408-2.3512-5.2408-5.775 0-3.465 2.1212-5.8162 5.2408-5.8162s5.2406 2.3512 5.2406 5.8162c0 3.4238-2.121 5.775-5.2406 5.775z"/><path d="m118.467 31.6225v-29.82367h-5.781v29.82367z"/><path d="m135.845 10.833-4.367 13.4062-4.409-13.4062h-5.906l7.612 20.625-3.078 8.5799h5.532l2.953-8.4974 7.611-20.7075z"/><path d="m158.031 12.8964c-.728-.8011-1.623-1.4311-2.623-1.8448s-2.079-.6007-3.159-.5477c-6.115 0-9.816 4.2488-9.816 10.725s3.701 10.725 9.9 10.725c1.079.0653 2.159-.1204 3.155-.5427s1.88-1.0695 2.584-1.8911v2.7225c.032.4194-.022.841-.16 1.2385-.137.3975-.355.7624-.64 1.072s-.631.5572-1.015.7275c-.385.1702-.8.2594-1.221.262h-9.65v4.4963h10.564c4.743 0 7.904-2.8463 7.904-7.1775v-22.0275h-5.823zm-4.784 14.1075c-3.077 0-5.116-2.2687-5.116-5.775 0-3.5062 2.039-5.8162 5.116-5.8162 3.12 0 5.158 2.31 5.158 5.8162 0 3.5063-2.038 5.775-5.158 5.775z"/><path d="m178.429 31.9532c2.107-.0654 4.149-.7501 5.869-1.9684s3.043-2.9164 3.805-4.8822c.761-1.9659.926-4.1124.475-6.1715-.452-2.0592-1.499-3.9398-3.013-5.4071s-3.426-2.4563-5.498-2.8434c-2.072-.3872-4.212-.1554-6.154.6664-1.941.8218-3.597 2.1972-4.762 3.9545-1.164 1.7573-1.785 3.8187-1.785 5.9267-.028 1.445.242 2.8801.793 4.2163.55 1.3362 1.37 2.5449 2.408 3.5508 1.037 1.0059 2.271 1.7876 3.624 2.2965 1.352.5088 2.795.734 4.238.6614zm0-4.95c-3.119 0-5.24-2.3512-5.24-5.775 0-3.465 2.121-5.8162 5.24-5.8162 3.12 0 5.242 2.3512 5.242 5.8162 0 3.4238-2.122 5.775-5.242 5.775z"/><path d="m198.478 31.623v-11.385c-.042-.5927.038-1.1878.237-1.7479.198-.5601.511-1.0732.917-1.507s.897-.7789 1.443-1.0138c.546-.235 1.134-.3545 1.729-.3513.557-.0057 1.109.1047 1.621.3243s.972.5435 1.352.9511c.38.4075.67.8898.853 1.4159.183.5262.254 1.0847.209 1.64v11.6737h5.823v-12.9525c0-4.785-3.078-8.1675-7.819-8.1675-1.251-.0783-2.501.1786-3.62.7441-1.118.5656-2.066 1.4194-2.745 2.4734v-2.8875h-5.822v20.79z"/></g></svg>
